<svg xmlns="http://www.w3.org/2000/svg" width="1200" height="675" viewBox="0 0 1200 675" role="img" aria-label="RunwayLab fabric cover placeholder">
  <rect width="1200" height="675" fill="#f7f7f5"/>
  <rect x="82" y="78" width="1036" height="519" rx="26" fill="#fff" stroke="#111" stroke-opacity=".12"/>
  <path d="M190 192c126 54 254 54 382 0 128-54 256-54 438 0v288c-182-54-310-54-438 0-128 54-256 54-382 0V192Z" fill="#efefec" stroke="#111" stroke-opacity=".16" stroke-width="3"/>
  <path d="M190 250c126 54 254 54 382 0 128-54 256-54 438 0M190 324c126 54 254 54 382 0 128-54 256-54 438 0M190 398c126 54 254 54 382 0 128-54 256-54 438 0" fill="none" stroke="#111" stroke-opacity=".36" stroke-width="10" stroke-linecap="round"/>
  <rect x="134" y="122" width="156" height="34" rx="17" fill="#111"/>
  <text x="212" y="146" text-anchor="middle" fill="#fff" font-family="Arial, Helvetica, sans-serif" font-size="15" font-weight="700" letter-spacing="3">RUNWAYLAB</text>
  <text x="134" y="555" fill="#111" font-family="Arial, Helvetica, sans-serif" font-size="50" font-weight="700">Fabric Library</text>
  <text x="840" y="552" fill="#111" fill-opacity=".42" font-family="Arial, Helvetica, sans-serif" font-size="22" font-weight="700">material reference</text>
</svg>
